<svg width="512" height="512" viewBox="0 0 512 512" fill="none" xmlns="http://www.w3.org/2000/svg">
  <rect width="512" height="512" rx="128" fill="url(#paint0_linear)"/>
  <path d="M156 156H226V226H156V156ZM246 156H316V226H246V156ZM336 156H406V226H336V156ZM156 246H226V316H156V246ZM246 246H316V316H246V246ZM336 246H406V316H336V246ZM156 336H226V406H156V336ZM246 336H316V406H246V336ZM336 336H406V406H336V336Z" fill="white"/>
  <rect x="246" y="246" width="70" height="70" fill="#4F46E5" rx="12"/>
  <path d="M265 295V267H277.5C282.5 267 285 269 285 272C285 274.5 283.5 276 281 276.5L285.5 282H280.5L276.5 277H270V282H265V295ZM270 273H276.5C278.5 273 280 272 280 271C280 270 278.5 269.5 276.5 269.5H270V273Z" fill="white" style="display:none;"/>
  <defs>
    <linearGradient id="paint0_linear" x1="0" y1="0" x2="512" y2="512" gradientUnits="userSpaceOnUse">
      <stop stop-color="#4F46E5"/>
      <stop offset="1" stop-color="#7C3AED"/>
    </linearGradient>
  </defs>
  <!-- Simple S shape for Sudokas -->
  <path d="M272.5 265C270 265 268 266 268 268V269C268 271 270 272 272 272H286C288 272 290 273 290 275V276C290 278 288 279 285.5 279H270" stroke="white" stroke-width="6" stroke-linecap="round" style="display:none;"/>
</svg>
